<svg width="23" height="20" viewBox="0 0 23 20" fill="none" xmlns="http://www.w3.org/2000/svg">
<path d="M21.9989 4.62778L19.36 2.59444C19.1807 2.47933 18.9857 2.39064 18.7811 2.33111C18.5773 2.26516 18.3652 2.2285 18.1511 2.22222H10.5556L11.4456 7.77778H18.1511C18.3333 7.77778 18.5611 7.73667 18.78 7.66889C18.9989 7.60111 19.21 7.50778 19.3589 7.40667L21.9978 5.37111C22.1478 5.27 22.2222 5.13556 22.2222 5C22.2222 4.86444 22.1478 4.73 21.9989 4.62778ZM9.44444 0H8.33333C8.18599 0 8.04468 0.0585316 7.9405 0.162718C7.83631 0.266905 7.77778 0.408213 7.77778 0.555556V4.44444H4.07111C3.88667 4.44444 3.66 4.48556 3.44111 4.55444C3.22111 4.62111 3.01111 4.71333 2.86222 4.81667L0.223333 6.85C0.0733333 6.95111 0 7.08667 0 7.22222C0 7.35667 0.0733333 7.49111 0.223333 7.59444L2.86222 9.63C3.01111 9.73111 3.22111 9.82445 3.44111 9.89111C3.66 9.95889 3.88667 10 4.07111 10H7.77778V19.4444C7.77778 19.5918 7.83631 19.7331 7.9405 19.8373C8.04468 19.9415 8.18599 20 8.33333 20H9.44444C9.59179 20 9.73309 19.9415 9.83728 19.8373C9.94147 19.7331 10 19.5918 10 19.4444V0.555556C10 0.408213 9.94147 0.266905 9.83728 0.162718C9.73309 0.0585316 9.59179 0 9.44444 0Z" fill="#959188"/>
</svg>
