<svg width="29" height="20" viewBox="0 0 29 20" fill="none" xmlns="http://www.w3.org/2000/svg">
<path d="M27.1429 0H1.42857C0.639732 0 0 0.639732 0 1.42857V18.5714C0 19.3603 0.639732 20 1.42857 20H27.1429C27.9317 20 28.5714 19.3603 28.5714 18.5714V1.42857C28.5714 0.639732 27.9317 0 27.1429 0ZM7.85714 13.2089V13.9286C7.85714 14.1259 7.69732 14.2857 7.5 14.2857H6.78571C6.58839 14.2857 6.42857 14.1259 6.42857 13.9286V13.2013C5.92455 13.1754 5.43438 12.9996 5.02812 12.6946C4.85402 12.5638 4.84509 12.3031 5.00268 12.1527L5.52723 11.6522C5.65089 11.5344 5.83482 11.529 5.97946 11.6196C6.15223 11.7277 6.34821 11.7857 6.55179 11.7857H7.8067C8.09687 11.7857 8.33348 11.5214 8.33348 11.1969C8.33348 10.9313 8.17232 10.6973 7.94196 10.6286L5.93304 10.0259C5.10312 9.77679 4.52321 8.98036 4.52321 8.08884C4.52321 6.9942 5.37366 6.10491 6.42813 6.07679V5.35714C6.42813 5.15982 6.58795 5 6.78527 5H7.49955C7.69688 5 7.8567 5.15982 7.8567 5.35714V6.08437C8.36071 6.11027 8.85089 6.28571 9.25714 6.59107C9.43125 6.72188 9.44018 6.98259 9.28259 7.13304L8.75804 7.63348C8.63437 7.75134 8.45045 7.7567 8.3058 7.66607C8.13304 7.55759 7.93705 7.5 7.73348 7.5H6.47857C6.18839 7.5 5.95179 7.76429 5.95179 8.08884C5.95179 8.35446 6.11295 8.58839 6.3433 8.65714L8.35223 9.25982C9.18214 9.50893 9.76205 10.3054 9.76205 11.1969C9.76205 12.292 8.91161 13.1808 7.85714 13.2089V13.2089ZM18.5714 12.5C18.5714 12.6973 18.4116 12.8571 18.2143 12.8571H13.2143C13.017 12.8571 12.8571 12.6973 12.8571 12.5V11.7857C12.8571 11.5884 13.017 11.4286 13.2143 11.4286H18.2143C18.4116 11.4286 18.5714 11.5884 18.5714 11.7857V12.5ZM25.7143 12.5C25.7143 12.6973 25.5545 12.8571 25.3571 12.8571H21.7857C21.5884 12.8571 21.4286 12.6973 21.4286 12.5V11.7857C21.4286 11.5884 21.5884 11.4286 21.7857 11.4286H25.3571C25.5545 11.4286 25.7143 11.5884 25.7143 11.7857V12.5ZM25.7143 8.21429C25.7143 8.41161 25.5545 8.57143 25.3571 8.57143H13.2143C13.017 8.57143 12.8571 8.41161 12.8571 8.21429V7.5C12.8571 7.30268 13.017 7.14286 13.2143 7.14286H25.3571C25.5545 7.14286 25.7143 7.30268 25.7143 7.5V8.21429Z" fill="white"/>
</svg>
