<svg width="200" height="200" viewBox="0 0 200 200" fill="none" xmlns="http://www.w3.org/2000/svg">
<path d="M119.543 72.5506C118.615 71.451 118.124 70.1989 118.124 68.9308C118.124 68.8691 118.122 68.8077 118.118 68.7464L115.11 24.4538C116.692 23.2032 117.711 21.2724 117.711 19.1044V17.4311C117.711 16.8591 117.64 16.2894 117.499 15.7381C117.454 15.5613 117.401 15.3881 117.342 15.2174C118.738 13.5684 119.532 11.4651 119.532 9.24736C119.532 4.14851 115.384 0 110.285 0C108.435 0 106.669 0.54362 105.174 1.54008C103.678 0.54362 101.912 0 100.062 0C98.2126 0 96.4467 0.54362 94.9513 1.54008C93.4559 0.54362 91.6899 0 89.8401 0C84.7412 0 80.5931 4.14851 80.5931 9.24736C80.5931 11.4716 81.3829 13.5146 82.696 15.1117C82.6648 15.1978 82.6332 15.2842 82.6056 15.3713C82.395 16.037 82.2882 16.7299 82.2882 17.4311V19.1044C82.2882 21.2727 83.3083 23.2035 84.8898 24.4538L81.8822 68.7464C81.8782 68.8077 81.8761 68.8691 81.8761 68.9308C81.8761 70.1989 81.3851 71.4507 80.4565 72.5506C74.4172 79.7059 68.323 94.9571 68.323 112.901C68.323 124.013 68.7958 185.215 68.8005 185.811C68.8005 194.165 73.7955 200 80.9479 200H119.052C126.204 200 131.199 194.165 131.199 185.831C131.204 185.215 131.677 124.012 131.677 112.9C131.677 95.8479 125.573 79.6943 119.543 72.5506ZM89.8401 5.4471C91.0036 5.4471 92.0886 5.97401 92.8171 6.89276C93.3335 7.54459 94.1197 7.92444 94.9513 7.92444C95.7829 7.92444 96.5691 7.54459 97.0855 6.89276C97.8139 5.97401 98.899 5.4471 100.062 5.4471C101.226 5.4471 102.311 5.97401 103.039 6.89276C103.556 7.54459 104.342 7.92444 105.174 7.92444C106.005 7.92444 106.791 7.54459 107.308 6.89276C108.036 5.97401 109.122 5.4471 110.285 5.4471C112.38 5.4471 114.085 7.15168 114.085 9.24736C114.085 9.93042 113.897 10.5848 113.564 11.1567C112.737 10.8045 111.832 10.6091 110.889 10.6091H95.4085C94.4607 10.4486 93.4566 10.7951 92.8171 11.6016C92.089 12.5203 91.0036 13.0473 89.8401 13.0473C87.7448 13.0473 86.0402 11.3427 86.0402 9.24699C86.0402 7.15131 87.7448 5.4471 89.8401 5.4471ZM125.752 185.811C125.752 190.162 123.681 194.553 119.052 194.553H80.9482C76.0026 194.553 74.2479 189.844 74.2479 185.79C74.2432 185.173 73.7704 123.992 73.7704 112.901C73.7704 96.4223 79.3944 82.2544 84.6192 76.0644C85.0652 75.5364 85.457 74.984 85.7954 74.4132H103.118C104.622 74.4132 105.842 73.1941 105.842 71.6896C105.842 70.1851 104.622 68.9661 103.118 68.9661H87.3268L90.2493 25.9267H99.9996C101.504 25.9267 102.723 24.7077 102.723 23.2032C102.723 21.6987 101.504 20.4796 99.9996 20.4796H89.1102C88.3519 20.4796 87.735 19.8627 87.735 19.1044V18.25C88.4115 18.4083 89.1156 18.4943 89.8397 18.4943C92.1849 18.4943 94.3942 17.6185 96.0886 16.0559H110.889C111.518 16.0559 112.066 16.48 112.221 17.0868C112.249 17.1976 112.264 17.3131 112.264 17.4307V19.1041C112.264 19.8623 111.647 20.4793 110.889 20.4793H110.296C108.792 20.4793 107.572 21.6983 107.572 23.2028C107.572 24.5188 108.505 25.6166 109.746 25.8708L112.672 68.9653H112.255C110.751 68.9653 109.532 70.1844 109.532 71.6889C109.532 73.1934 110.751 74.4124 112.255 74.4124H114.204C114.542 74.9833 114.934 75.5356 115.38 76.0636C120.772 82.4505 126.229 97.1548 126.229 112.9C126.23 123.992 125.757 185.173 125.752 185.811ZM100 96.4006C93.0205 96.4006 86.5406 100.406 81.754 107.68C77.1992 114.603 74.6903 123.754 74.6903 133.448C74.6903 143.142 77.1988 152.293 81.754 159.215C86.5406 166.488 93.0201 170.495 100 170.495C106.98 170.495 113.459 166.489 118.246 159.215C122.801 152.292 125.31 143.142 125.31 133.448C125.31 123.754 122.801 114.602 118.246 107.68C113.459 100.406 106.98 96.4006 100 96.4006ZM119.862 133.447C119.862 142.089 117.672 150.177 113.695 156.22C109.95 161.912 105.086 165.047 100 165.047C94.9139 165.047 90.05 161.912 86.3046 156.22C82.3278 150.177 80.1377 142.089 80.1377 133.447C80.1377 124.805 82.3278 116.717 86.3046 110.674C90.05 104.982 94.9139 101.847 100 101.847C105.086 101.847 109.95 104.982 113.695 110.674C117.672 116.717 119.862 124.806 119.862 133.447Z" fill="#44443D"/>
<g clip-path="url(#clip0_218_245)">
<path d="M127.449 119.543C128.549 118.615 129.801 118.124 131.069 118.124C131.131 118.124 131.192 118.122 131.254 118.118L175.546 115.11C176.797 116.692 178.728 117.711 180.896 117.711L182.569 117.711C183.141 117.711 183.711 117.64 184.262 117.499C184.439 117.454 184.612 117.401 184.783 117.342C186.432 118.738 188.535 119.532 190.753 119.532C195.851 119.532 200 115.384 200 110.285C200 108.435 199.456 106.669 198.46 105.174C199.456 103.678 200 101.912 200 100.062C200 98.2126 199.456 96.4467 198.46 94.9513C199.456 93.4558 200 91.6899 200 89.8401C200 84.7412 195.852 80.5931 190.753 80.5931C188.528 80.5931 186.485 81.3829 184.888 82.696C184.802 82.6648 184.716 82.6332 184.629 82.6056C183.963 82.395 183.27 82.2882 182.569 82.2882L180.896 82.2882C178.727 82.2882 176.796 83.3083 175.546 84.8897L131.254 81.8822C131.192 81.8782 131.131 81.876 131.069 81.876C129.801 81.876 128.549 81.3851 127.449 80.4565C120.294 74.4171 105.043 68.3229 87.0995 68.3229C75.9874 68.3229 14.7849 68.7957 14.1893 68.8005C5.83495 68.8005 0.000390808 73.7954 0.000390496 80.9478L0.00038883 119.052C0.000388518 126.204 5.83495 131.199 14.1686 131.199C14.7853 131.204 75.9878 131.677 87.0998 131.677C104.152 131.677 120.306 125.573 127.449 119.543ZM194.553 89.8401C194.553 91.0036 194.026 92.0886 193.107 92.8171C192.455 93.3335 192.076 94.1197 192.076 94.9513C192.076 95.7828 192.455 96.569 193.107 97.0854C194.026 97.8139 194.553 98.8989 194.553 100.062C194.553 101.226 194.026 102.311 193.107 103.039C192.455 103.556 192.076 104.342 192.076 105.174C192.076 106.005 192.455 106.791 193.107 107.308C194.026 108.036 194.553 109.122 194.553 110.285C194.553 112.38 192.848 114.085 190.753 114.085C190.07 114.085 189.415 113.897 188.843 113.564C189.196 112.737 189.391 111.832 189.391 110.889L189.391 95.4084C189.551 94.4606 189.205 93.4566 188.398 92.8171C187.48 92.089 186.953 91.0036 186.953 89.8401C186.953 87.7447 188.657 86.0402 190.753 86.0402C192.849 86.0402 194.553 87.7447 194.553 89.8401ZM14.189 125.752C9.83784 125.752 5.44711 123.681 5.44711 119.052L5.44711 80.9482C5.44711 76.0026 10.1563 74.2479 14.21 74.2479C14.8267 74.2432 76.0085 73.7704 87.0995 73.7704C103.578 73.7704 117.746 79.3943 123.936 84.6192C124.464 85.0651 125.016 85.457 125.587 85.7954L125.587 103.118C125.587 104.622 126.806 105.842 128.31 105.842C129.815 105.842 131.034 104.622 131.034 103.118L131.034 87.3268L174.073 90.2493L174.073 99.9996C174.073 101.504 175.292 102.723 176.797 102.723C178.301 102.723 179.52 101.504 179.52 99.9996L179.52 89.1101C179.52 88.3519 180.137 87.7349 180.896 87.7349L181.75 87.7349C181.592 88.4115 181.506 89.1156 181.506 89.8397C181.506 92.1849 182.382 94.3942 183.944 96.0886L183.944 110.889C183.944 111.518 183.52 112.066 182.913 112.221C182.802 112.249 182.687 112.264 182.569 112.264L180.896 112.264C180.138 112.264 179.521 111.647 179.521 110.889L179.521 110.296C179.521 108.792 178.302 107.572 176.797 107.572C175.481 107.572 174.383 108.505 174.129 109.746L131.035 112.672L131.035 112.255C131.035 110.751 129.816 109.532 128.311 109.532C126.807 109.532 125.588 110.751 125.588 112.255L125.588 114.204C125.017 114.542 124.464 114.934 123.936 115.38C117.549 120.772 102.845 126.229 87.1002 126.229C76.0085 126.23 14.8267 125.757 14.189 125.752ZM103.599 100C103.599 93.0204 99.5937 86.5406 92.3196 81.754C85.3974 77.1992 76.2463 74.6902 66.5523 74.6902C56.8583 74.6902 47.7072 77.1988 40.785 81.754C33.5117 86.5406 29.5055 93.0201 29.5055 100C29.5055 106.98 33.5113 113.459 40.785 118.246C47.7075 122.801 56.8583 125.31 66.5523 125.31C76.2463 125.31 85.3978 122.801 92.3196 118.246C99.5937 113.459 103.599 106.98 103.599 100ZM66.5527 119.862C57.9107 119.862 49.8232 117.672 43.7798 113.695C38.0876 109.95 34.953 105.086 34.953 100C34.953 94.9138 38.0876 90.0499 43.7798 86.3045C49.8232 82.3278 57.9107 80.1377 66.5527 80.1377C75.1947 80.1377 83.2825 82.3278 89.3259 86.3045C95.0181 90.05 98.1527 94.9138 98.1527 100C98.1527 105.086 95.0181 109.95 89.3259 113.695C83.2825 117.672 75.1943 119.862 66.5527 119.862Z" fill="#44443D"/>
</g>
<g clip-path="url(#clip1_218_245)">
<path d="M80.4569 127.449C81.3855 128.549 81.8761 129.801 81.8761 131.069C81.8761 131.131 81.8783 131.192 81.8823 131.254L84.8898 175.546C83.3083 176.797 82.2886 178.728 82.2886 180.896L82.2886 182.569C82.2886 183.141 82.3598 183.711 82.5007 184.262C82.5461 184.439 82.5991 184.612 82.6576 184.783C81.2617 186.432 80.4678 188.535 80.4678 190.753C80.4678 195.851 84.6163 200 89.7152 200C91.5647 200 93.331 199.456 94.8264 198.46C96.3218 199.456 98.0877 200 99.9376 200C101.787 200 103.553 199.456 105.049 198.46C106.544 199.456 108.31 200 110.16 200C115.259 200 119.407 195.851 119.407 190.753C119.407 188.528 118.617 186.485 117.304 184.888C117.335 184.802 117.367 184.716 117.394 184.629C117.605 183.963 117.712 183.27 117.712 182.569L117.712 180.896C117.712 178.727 116.692 176.796 115.11 175.546L118.118 131.254C118.122 131.192 118.124 131.131 118.124 131.069C118.124 129.801 118.615 128.549 119.543 127.449C125.583 120.294 131.677 105.043 131.677 87.0995C131.677 75.9874 131.204 14.7849 131.2 14.1893C131.2 5.83494 126.205 0.000380082 119.052 0.000380707L80.9483 0.000384038C73.7958 0.000384664 68.8009 5.83495 68.8009 14.1686C68.7961 14.7853 68.3233 75.9878 68.3233 87.0998C68.3233 104.152 74.4274 120.306 80.4569 127.449ZM110.16 194.553C108.996 194.553 107.911 194.026 107.183 193.107C106.667 192.455 105.88 192.076 105.049 192.076C104.217 192.076 103.431 192.455 102.915 193.107C102.186 194.026 101.101 194.553 99.9376 194.553C98.7741 194.553 97.6894 194.026 96.9606 193.107C96.4442 192.455 95.658 192.076 94.8264 192.076C93.9948 192.076 93.2086 192.455 92.6922 193.107C91.9638 194.026 90.8783 194.553 89.7152 194.553C87.6199 194.553 85.9153 192.848 85.9153 190.753C85.9153 190.07 86.103 189.415 86.4364 188.843C87.2633 189.196 88.1682 189.391 89.1109 189.391L104.592 189.391C105.539 189.551 106.543 189.205 107.183 188.398C107.911 187.48 108.996 186.953 110.16 186.953C112.255 186.953 113.96 188.657 113.96 190.753C113.96 192.849 112.255 194.553 110.16 194.553ZM74.2476 14.189C74.2476 9.83784 76.3193 5.44711 80.9479 5.4471L119.052 5.4471C123.997 5.4471 125.752 10.1563 125.752 14.21C125.757 14.8266 126.23 76.0084 126.23 87.0995C126.23 103.578 120.606 117.746 115.381 123.936C114.935 124.464 114.543 125.016 114.205 125.587L96.8817 125.587C95.3776 125.587 94.1582 126.806 94.1582 128.31C94.1582 129.815 95.3776 131.034 96.8817 131.034L112.673 131.034L109.751 174.073L100 174.073C98.4963 174.073 97.2768 175.292 97.2768 176.797C97.2768 178.301 98.4963 179.52 100 179.52L110.89 179.52C111.648 179.52 112.265 180.137 112.265 180.896L112.265 181.75C111.589 181.592 110.884 181.506 110.16 181.506C107.815 181.506 105.606 182.382 103.911 183.944L89.1113 183.944C88.482 183.944 87.934 183.52 87.7789 182.913C87.7506 182.802 87.7364 182.687 87.7364 182.569L87.7364 180.896C87.7364 180.138 88.3531 179.521 89.1113 179.521L89.7043 179.521C91.2084 179.521 92.4278 178.302 92.4278 176.797C92.4278 175.481 91.4946 174.383 90.2541 174.129L87.3279 131.035L87.7448 131.035C89.2489 131.035 90.4683 129.816 90.4683 128.311C90.4683 126.807 89.2489 125.588 87.7448 125.588L85.7962 125.588C85.4581 125.017 85.0659 124.464 84.62 123.936C79.2284 117.549 73.7708 102.845 73.7708 87.1002C73.7704 76.0085 74.2429 14.8267 74.2476 14.189ZM100 103.599C106.98 103.599 113.459 99.5937 118.246 92.3196C122.801 85.3974 125.31 76.2463 125.31 66.5523C125.31 56.8583 122.801 47.7071 118.246 40.785C113.459 33.5116 106.98 29.5055 100 29.5055C93.0201 29.5055 86.5406 33.5113 81.7541 40.785C77.1992 47.7075 74.6903 56.8583 74.6903 66.5523C74.6903 76.2463 77.1988 85.3978 81.7541 92.3196C86.5406 99.5937 93.0205 103.599 100 103.599ZM80.1377 66.5527C80.1377 57.9107 82.3278 49.8232 86.3046 43.7798C90.05 38.0876 94.9139 34.9529 100 34.9529C105.086 34.9529 109.95 38.0876 113.695 43.7798C117.672 49.8232 119.862 57.9106 119.862 66.5526C119.862 75.1947 117.672 83.2825 113.695 89.3259C109.95 95.0181 105.086 98.1527 100 98.1527C94.9139 98.1527 90.05 95.0181 86.3046 89.3259C82.3278 83.2825 80.1377 75.1943 80.1377 66.5527Z" fill="#44443D"/>
</g>
<g clip-path="url(#clip2_218_245)">
<path d="M72.5506 80.4569C71.451 81.3855 70.1989 81.8761 68.9309 81.8761C68.8691 81.8761 68.8078 81.8782 68.7464 81.8822L24.4538 84.8898C23.2032 83.3083 21.2724 82.2886 19.1044 82.2886L17.4311 82.2886C16.8591 82.2886 16.2894 82.3598 15.7381 82.5007C15.5613 82.5461 15.3881 82.5991 15.2174 82.6575C13.5684 81.2616 11.4651 80.4678 9.24737 80.4678C4.14852 80.4678 1.32017e-05 84.6163 1.34246e-05 89.7152C1.35054e-05 91.5646 0.543634 93.331 1.54009 94.8264C0.543634 96.3218 1.37906e-05 98.0877 1.38714e-05 99.9376C1.39523e-05 101.787 0.543634 103.553 1.54009 105.049C0.543635 106.544 1.42374e-05 108.31 1.43182e-05 110.16C1.45411e-05 115.259 4.14852 119.407 9.24737 119.407C11.4716 119.407 13.5146 118.617 15.1117 117.304C15.1978 117.335 15.2842 117.367 15.3714 117.394C16.037 117.605 16.7299 117.712 17.4311 117.712L19.1044 117.712C21.2727 117.712 23.2036 116.692 24.4538 115.11L68.7464 118.118C68.8078 118.122 68.8691 118.124 68.9309 118.124C70.1989 118.124 71.4507 118.615 72.5506 119.543C79.7059 125.583 94.9571 131.677 112.901 131.677C124.013 131.677 185.215 131.204 185.811 131.2C194.165 131.2 200 126.205 200 119.052L200 80.9482C200 73.7958 194.165 68.8009 185.831 68.8009C185.215 68.7961 124.012 68.3233 112.9 68.3233C95.8479 68.3233 79.6943 74.4273 72.5506 80.4569ZM5.44711 110.16C5.44711 108.996 5.97403 107.911 6.89277 107.183C7.54461 106.667 7.92445 105.88 7.92445 105.049C7.92445 104.217 7.54461 103.431 6.89277 102.915C5.97403 102.186 5.44711 101.101 5.44711 99.9376C5.44711 98.7741 5.97403 97.6894 6.89277 96.9605C7.54461 96.4441 7.92445 95.658 7.92445 94.8264C7.92445 93.9948 7.54461 93.2086 6.89277 92.6922C5.97403 91.9637 5.44711 90.8783 5.44711 89.7152C5.44711 87.6199 7.15169 85.9153 9.24737 85.9153C9.93044 85.9153 10.5848 86.103 11.1568 86.4364C10.8045 87.2632 10.6091 88.1682 10.6091 89.1109L10.6091 104.592C10.4486 105.539 10.7951 106.543 11.6016 107.183C12.5203 107.911 13.0473 108.996 13.0473 110.16C13.0473 112.255 11.3427 113.96 9.24701 113.96C7.15133 113.96 5.44711 112.255 5.44711 110.16ZM185.811 74.2476C190.162 74.2476 194.553 76.3193 194.553 80.9479L194.553 119.052C194.553 123.997 189.844 125.752 185.79 125.752C185.173 125.757 123.992 126.23 112.901 126.23C96.4224 126.23 82.2545 120.606 76.0644 115.381C75.5364 114.935 74.984 114.543 74.4132 114.205L74.4132 96.8817C74.4132 95.3776 73.1941 94.1582 71.6896 94.1582C70.1851 94.1582 68.9661 95.3776 68.9661 96.8817L68.9661 112.673L25.9267 109.751L25.9267 100C25.9267 98.4963 24.7077 97.2768 23.2032 97.2768C21.6987 97.2768 20.4796 98.4963 20.4796 100L20.4796 110.89C20.4796 111.648 19.8627 112.265 19.1044 112.265L18.25 112.265C18.4083 111.589 18.4944 110.884 18.4944 110.16C18.4944 107.815 17.6185 105.606 16.0559 103.911L16.0559 89.1113C16.0559 88.4819 16.48 87.934 17.0868 87.7789C17.1976 87.7506 17.3131 87.7364 17.4307 87.7364L19.1041 87.7364C19.8623 87.7364 20.4793 88.353 20.4793 89.1113L20.4793 89.7043C20.4793 91.2084 21.6983 92.4278 23.2028 92.4278C24.5189 92.4278 25.6166 91.4946 25.8708 90.2541L68.9654 87.3279L68.9654 87.7448C68.9654 89.2489 70.1844 90.4683 71.6889 90.4683C73.1934 90.4683 74.4125 89.2489 74.4125 87.7448L74.4125 85.7962C74.9833 85.4581 75.5356 85.0659 76.0636 84.6199C82.4505 79.2284 97.1548 73.7708 112.9 73.7708C123.992 73.7704 185.173 74.2429 185.811 74.2476ZM96.4006 100C96.4006 106.98 100.406 113.459 107.68 118.246C114.603 122.801 123.754 125.31 133.448 125.31C143.142 125.31 152.293 122.801 159.215 118.246C166.488 113.459 170.495 106.98 170.495 100C170.495 93.0201 166.489 86.5406 159.215 81.754C152.293 77.1992 143.142 74.6903 133.448 74.6903C123.754 74.6903 114.602 77.1988 107.68 81.754C100.406 86.5406 96.4006 93.0205 96.4006 100ZM133.447 80.1377C142.089 80.1377 150.177 82.3278 156.22 86.3046C161.912 90.05 165.047 94.9139 165.047 100C165.047 105.086 161.912 109.95 156.22 113.695C150.177 117.672 142.089 119.862 133.447 119.862C124.805 119.862 116.718 117.672 110.674 113.695C104.982 109.95 101.847 105.086 101.847 100C101.847 94.9139 104.982 90.05 110.674 86.3046C116.718 82.3278 124.806 80.1377 133.447 80.1377Z" fill="#44443D"/>
</g>
<defs>
<clipPath id="clip0_218_245">
<rect width="200" height="200" fill="white" transform="translate(200) rotate(90)"/>
</clipPath>
<clipPath id="clip1_218_245">
<rect width="200" height="200" fill="white" transform="translate(200 200) rotate(180)"/>
</clipPath>
<clipPath id="clip2_218_245">
<rect width="200" height="200" fill="white" transform="translate(1.52588e-05 200) rotate(-90)"/>
</clipPath>
</defs>
</svg>
