<svg width="19" height="22" viewBox="0 0 19 22" fill="none" xmlns="http://www.w3.org/2000/svg">
<path d="M13.8572 8.5V19.2143C13.8557 19.6875 13.6672 20.1408 13.3326 20.4754C12.998 20.81 12.5446 20.9986 12.0714 21H4.2143C3.74114 20.9986 3.28775 20.81 2.95317 20.4754C2.61859 20.1408 2.43 19.6875 2.42859 19.2143V9.57143" stroke="black" stroke-linecap="round" stroke-linejoin="round"/>
<path d="M13.8572 9.57143H15.6429C16.3054 9.57332 16.9401 9.83731 17.4086 10.3057C17.877 10.7742 18.141 11.409 18.1429 12.0714V15.6429C18.141 16.3053 17.877 16.9401 17.4086 17.4085C16.9401 17.877 16.3054 18.141 15.6429 18.1429H13.8572" stroke="black" stroke-miterlimit="10" stroke-linecap="round"/>
<path d="M8.14282 11V18.1428" stroke="black" stroke-linecap="round" stroke-linejoin="round"/>
<path d="M11 11V18.1428" stroke="black" stroke-linecap="round" stroke-linejoin="round"/>
<path d="M5.28564 11V18.1428" stroke="black" stroke-linecap="round" stroke-linejoin="round"/>
<path d="M12.4286 4.57143C12.9969 4.57143 13.5419 4.79719 13.9438 5.19906C14.3457 5.60092 14.5714 6.14596 14.5714 6.71428C14.5714 7.28261 14.3457 7.82765 13.9438 8.22951C13.5419 8.63138 12.9969 8.85714 12.4286 8.85714C11.8371 8.85714 11.1201 8.5308 10.7321 8.14286H5.28571C4.92857 9.125 4.08036 9.57143 3.14286 9.57143C2.57454 9.57143 2.02949 9.34566 1.62763 8.9438C1.22576 8.54194 1 7.99689 1 7.42857C1 6.86025 1.22576 6.3152 1.62763 5.91334C2.02949 5.51148 2.57454 5.28571 3.14286 5.28571C3.56072 5.30328 3.96427 5.44297 4.30357 5.6875" stroke="black" stroke-linecap="round" stroke-linejoin="round"/>
<path d="M2.24373 5.48348C2.06863 5.31 1.93135 5.10214 1.84051 4.873C1.74968 4.64386 1.70727 4.3984 1.71595 4.15206C1.72463 3.90573 1.78422 3.66386 1.89095 3.44168C1.99769 3.2195 2.14927 3.02183 2.33615 2.8611C2.52302 2.70037 2.74115 2.58007 2.9768 2.50778C3.21244 2.43548 3.46051 2.41275 3.70537 2.44102C3.95023 2.46929 4.18658 2.54795 4.39956 2.67204C4.61253 2.79613 4.79751 2.96297 4.94284 3.16205C4.94284 3.16205 5.2857 3.63393 5.2857 3.85714" stroke="black" stroke-miterlimit="10" stroke-linecap="round"/>
<path d="M4.65308 2.46027C5.42942 1.57545 6.51647 1 7.78567 1C10.1241 1 11.9821 2.9125 11.9821 5.25045C11.9822 5.51693 11.9573 5.78284 11.9075 6.04464" stroke="black" stroke-miterlimit="10" stroke-linecap="round"/>
</svg>
