<svg width="25" height="20" viewBox="0 0 25 20" fill="none" xmlns="http://www.w3.org/2000/svg">
<path fill-rule="evenodd" clip-rule="evenodd" d="M23.75 17.5C24.4404 17.5 25 18.0596 25 18.75C25 19.4404 24.4404 20 23.75 20H6.25C5.55964 20 5 19.4404 5 18.75C5 18.0596 5.55964 17.5 6.25 17.5H23.75ZM23.75 8.75C24.4404 8.75 25 9.30964 25 10C25 10.6904 24.4404 11.25 23.75 11.25H6.25C5.55964 11.25 5 10.6904 5 10C5 9.30964 5.55964 8.75 6.25 8.75H23.75ZM23.75 0C24.4404 0 25 0.559644 25 1.25C25 1.94036 24.4404 2.5 23.75 2.5H6.25C5.55964 2.5 5 1.94036 5 1.25C5 0.559644 5.55964 0 6.25 0H23.75ZM0 0H2.5V2.5H0V0ZM0 8.75H2.5V11.25H0V8.75ZM0 17.5H2.5V20H0V17.5Z" fill="black"/>
</svg>
