<svg width="21" height="20" viewBox="0 0 21 20" fill="none" xmlns="http://www.w3.org/2000/svg">
<path d="M3.31902 19.1841L3.92511 18.881L3.31902 19.1841ZM17.0099 19.1841L17.616 19.4872L17.0099 19.1841ZM0.953018 7.8026H19.376V6.44734H0.953018V7.8026ZM18.9737 7.40036V7.995H20.329V7.40036H18.9737ZM16.7862 18.6447H3.54279V20H16.7862V18.6447ZM1.35527 7.995V7.40036H0V7.995H1.35527ZM3.92511 18.881C2.23511 15.5011 1.35527 11.774 1.35527 7.995H0C0 11.9843 0.928826 15.9189 2.71292 19.4872L3.92511 18.881ZM3.54279 18.6447C3.7047 18.6447 3.85271 18.7362 3.92511 18.881L2.71292 19.4872C2.87009 19.8015 3.19135 20 3.54279 20V18.6447ZM16.4039 18.881C16.4762 18.7362 16.6242 18.6447 16.7862 18.6447V20C17.1376 20 17.4589 19.8015 17.616 19.4872L16.4039 18.881ZM18.9737 7.995C18.9737 11.774 18.0939 15.5011 16.4039 18.881L17.616 19.4872C19.4002 15.9189 20.329 11.9843 20.329 7.995H18.9737ZM19.376 7.8026C19.1538 7.8026 18.9737 7.62252 18.9737 7.40036H20.329C20.329 6.87402 19.9024 6.44734 19.376 6.44734V7.8026ZM0.953018 6.44734C0.42668 6.44734 0 6.87402 0 7.40036H1.35527C1.35527 7.62252 1.17517 7.8026 0.953018 7.8026V6.44734ZM5.3245 7.47361L9.3903 0.697279L8.22816 0L4.16236 6.77633L5.3245 7.47361ZM10.9387 0.697279L15.0046 7.47361L16.1666 6.77633L12.1008 0L10.9387 0.697279Z" fill="black"/>
</svg>
