<svg width="20" height="15" viewBox="0 0 20 15" fill="none" xmlns="http://www.w3.org/2000/svg">
<path d="M1.84675 12.8603C2.04422 12.956 2.26584 13.0096 2.5 13.0096H17.5C17.7342 13.0096 17.9558 12.956 18.1533 12.8603L12.2446 7.29921L10.3179 8.88596C10.1332 9.03801 9.86678 9.03801 9.68215 8.88596L7.75538 7.29921L1.84675 12.8603ZM1.1431 12.1498C1.14773 12.1451 1.15247 12.1405 1.15732 12.1359L6.9772 6.65836L1.18215 1.88597C1.16951 1.87556 1.15752 1.86466 1.14617 1.85332C1.05247 2.04913 1 2.26844 1 2.5V11.5096C1 11.7386 1.05132 11.9557 1.1431 12.1498ZM18.8569 12.1498C18.9487 11.9557 19 11.7386 19 11.5096V2.5C19 2.26844 18.9475 2.04914 18.8538 1.85333C18.8425 1.86466 18.8305 1.87556 18.8179 1.88597L13.0228 6.65836L18.8427 12.1359C18.8475 12.1405 18.8523 12.1451 18.8569 12.1498ZM18.1444 1.1451C17.9492 1.05207 17.7307 1 17.5 1H2.5C2.26933 1 2.05081 1.05207 1.85557 1.1451L10 7.85227L18.1444 1.1451ZM2.5 0H17.5C18.8807 0 20 1.11929 20 2.5V11.5096C20 12.8903 18.8807 14.0096 17.5 14.0096H2.5C1.11929 14.0096 0 12.8903 0 11.5096V2.5C0 1.11929 1.11929 0 2.5 0Z" fill="#959188"/>
</svg>
