<svg width="19" height="22" viewBox="0 0 19 22" fill="none" xmlns="http://www.w3.org/2000/svg">
<path d="M9.73474 11C12.4962 11 14.7347 8.76142 14.7347 6C14.7347 3.23858 12.4962 1 9.73474 1C6.97332 1 4.73474 3.23858 4.73474 6C4.73474 8.76142 6.97332 11 9.73474 11Z" stroke="#959188"/>
<path d="M14.7347 13H15.0864C16.5993 13 17.8755 14.1266 18.0632 15.6279L18.4537 18.7519C18.6029 19.9456 17.6721 21 16.4691 21H3.00029C1.7973 21 0.866528 19.9456 1.01574 18.7519L1.40624 15.6279C1.5939 14.1266 2.87011 13 4.38308 13H4.73473" stroke="#959188" stroke-linecap="round" stroke-linejoin="round"/>
</svg>
