<svg width="20" height="20" viewBox="0 0 20 20" fill="none" xmlns="http://www.w3.org/2000/svg">
<path d="M15 6.66668H16.6667C16.8877 6.66668 17.0996 6.75447 17.2559 6.91075C17.4122 7.06703 17.5 7.279 17.5 7.50001V17.5C17.5 17.721 17.4122 17.933 17.2559 18.0893C17.0996 18.2455 16.8877 18.3333 16.6667 18.3333H3.33333C3.11232 18.3333 2.90036 18.2455 2.74408 18.0893C2.5878 17.933 2.5 17.721 2.5 17.5V7.50001C2.5 7.279 2.5878 7.06703 2.74408 6.91075C2.90036 6.75447 3.11232 6.66668 3.33333 6.66668H5V5.83334C5 4.50726 5.52678 3.23549 6.46447 2.29781C7.40215 1.36013 8.67392 0.833344 10 0.833344C11.3261 0.833344 12.5979 1.36013 13.5355 2.29781C14.4732 3.23549 15 4.50726 15 5.83334V6.66668ZM4.16667 8.33334V16.6667H15.8333V8.33334H4.16667ZM9.16667 11.6667H10.8333V13.3333H9.16667V11.6667ZM5.83333 11.6667H7.5V13.3333H5.83333V11.6667ZM12.5 11.6667H14.1667V13.3333H12.5V11.6667ZM13.3333 6.66668V5.83334C13.3333 4.94929 12.9821 4.10144 12.357 3.47632C11.7319 2.8512 10.8841 2.50001 10 2.50001C9.11595 2.50001 8.2681 2.8512 7.64298 3.47632C7.01786 4.10144 6.66667 4.94929 6.66667 5.83334V6.66668H13.3333Z" fill="#959188"/>
</svg>
