<svg width="40" height="40" viewBox="0 0 40 40" fill="none" xmlns="http://www.w3.org/2000/svg">
<path d="M6.66663 11.6667H33.3333" stroke="#FF2222" stroke-linecap="round" stroke-linejoin="round"/>
<path d="M16.6666 18.3333V28.3333" stroke="#FF2222" stroke-linecap="round" stroke-linejoin="round"/>
<path d="M23.3334 18.3333V28.3333" stroke="#FF2222" stroke-linecap="round" stroke-linejoin="round"/>
<path d="M8.33337 11.6667L10 31.6667C10 32.5507 10.3512 33.3986 10.9764 34.0237C11.6015 34.6488 12.4493 35 13.3334 35H26.6667C27.5508 35 28.3986 34.6488 29.0237 34.0237C29.6489 33.3986 30 32.5507 30 31.6667L31.6667 11.6667" stroke="#FF2222" stroke-linecap="round" stroke-linejoin="round"/>
<path d="M15 11.6667V6.66667C15 6.22464 15.1756 5.80072 15.4882 5.48816C15.8007 5.17559 16.2246 5 16.6667 5H23.3333C23.7754 5 24.1993 5.17559 24.5118 5.48816C24.8244 5.80072 25 6.22464 25 6.66667V11.6667" stroke="#FF2222" stroke-linecap="round" stroke-linejoin="round"/>
</svg>
